Coordinates
version=1
nRows=32
nColumns=12
inDegrees=yes

Units are S.I. units (second, meters, Newtons, ...)
Angles are in degrees

endheader
time	SC_y	SC_z	SC_x	AC_y	AC_z	AC_x	GH_y	GH_z	GH_yy	EL_x	PS_y
       0.0              -16.16           24.1          40.04          45.21          1.295        -0.7226         -123.1           75.2          139.8          76.26          109.3
   0.03532              -16.16           24.1          40.04          45.21          1.294        -0.7206         -123.1          75.19          139.8          76.27          109.3
   0.07063              -16.17           24.1          40.04          45.21          1.293        -0.7184         -123.1          75.19          139.7          76.28          109.3
    0.1059              -16.17           24.1          40.04          45.21          1.292        -0.7161         -123.1          75.18          139.7          76.29          109.2
    0.1413              -16.17           24.1          40.05          45.21          1.291        -0.7137         -123.0          75.17          139.7           76.3          109.2
    0.1766              -16.17           24.1          40.05           45.2           1.29        -0.7111         -123.0          75.16          139.7          76.31          109.2
    0.2119              -16.18          24.11          40.05           45.2          1.289        -0.7083         -123.0          75.16          139.7          76.32          109.2
    0.2472              -16.18          24.11          40.05           45.2          1.287        -0.7053         -122.9          75.15          139.7          76.33          109.2
    0.2825              -16.18          24.11          40.05           45.2          1.286        -0.7022         -122.9          75.14          139.6          76.34          109.2
    0.3178              -16.19          24.11          40.06          45.19          1.284        -0.6987         -122.9          75.12          139.6          76.36          109.2
    0.3532              -16.19          24.11          40.06          45.19          1.282        -0.6951         -122.8          75.11          139.6          76.37          109.1
    0.3885               -16.2          24.12          40.06          45.19           1.28        -0.6911         -122.8           75.1          139.5          76.39          109.1
    0.4238               -16.2          24.12          40.06          45.18          1.278        -0.6869         -122.7          75.09          139.5           76.4          109.1
    0.4591              -16.21          24.12          40.07          45.18          1.276        -0.6823         -122.7          75.07          139.5          76.42          109.1
    0.4944              -16.21          24.12          40.07          45.18          1.274        -0.6773         -122.6          75.06          139.5          76.44          109.1
    0.5297              -16.22          24.13          40.07          45.17          1.271         -0.672         -122.6          75.04          139.4          76.46          109.0
    0.5651              -16.22          24.13          40.08          45.17          1.269        -0.6661         -122.5          75.02          139.4          76.48          109.0
    0.6004              -16.23          24.14          40.08          45.16          1.266        -0.6597         -122.4           75.0          139.3          76.51          109.0
    0.6357              -16.24          24.14          40.08          45.16          1.262        -0.6528         -122.4          74.98          139.3          76.54          108.9
     0.671              -16.25          24.15          40.09          45.15          1.259        -0.6451         -122.3          74.95          139.2          76.56          108.9
    0.7063              -16.26          24.15          40.09          45.15          1.255        -0.6368         -122.2          74.93          139.2           76.6          108.9
    0.7416              -16.27          24.16           40.1          45.14          1.251        -0.6275         -122.1           74.9          139.1          76.63          108.8
     0.777              -16.28          24.16          40.11          45.13          1.246        -0.6174         -122.0          74.87          139.0          76.67          108.8
    0.8123              -16.29          24.17          40.11          45.12          1.241        -0.6061         -121.8          74.83          138.9          76.72          108.7
    0.8476              -16.31          24.18          40.12          45.11          1.235        -0.5936         -121.7          74.79          138.9          76.76          108.7
    0.8829              -16.32          24.19          40.13           45.1          1.228        -0.5796         -121.5          74.75          138.8          76.82          108.6
    0.9182              -16.34           24.2          40.14          45.09          1.221        -0.5639         -121.4           74.7          138.6          76.88          108.5
    0.9535              -16.36          24.21          40.15          45.08          1.213        -0.5463         -121.2          74.64          138.5          76.95          108.4
    0.9889              -16.38          24.22          40.16          45.06          1.203        -0.5264         -120.9          74.58          138.4          77.03          108.3
     1.024               -16.4          24.23          40.18          45.04          1.193        -0.5037         -120.7           74.5          138.2          77.11          108.2
     1.059              -16.43          24.25          40.19          45.02           1.18        -0.4779         -120.4          74.42          138.0          77.21          108.1
     1.095              -16.47          24.27          40.21           45.0          1.167        -0.4483         -120.1          74.33          137.8          77.33          107.9
